0
SECTION
2
HEADER
9
$INSUNITS
70
1
9
$ACADVER
1
AC1014
9
$HANDSEED
5
FFFF
0
ENDSEC
0
SECTION
2
TABLES
0
TABLE
2
VPORT
5
8
100
AcDbSymbolTable
0
ENDTAB
0
TABLE
2
LTYPE
5
5
100
AcDbSymbolTable
0
LTYPE
5
14
100
AcDbSymbolTableRecord
100
AcDbLinetypeTableRecord
2
BYBLOCK
70
0
0
LTYPE
5
15
100
AcDbSymbolTableRecord
100
AcDbLinetypeTableRecord
2
BYLAYER
70
0
0
ENDTAB
0
TABLE
2
LAYER
5
2
100
AcDbSymbolTable
70
2
0
LAYER
5
50
100
AcDbSymbolTableRecord
100
AcDbLayerTableRecord
2
0
70
0
6
CONTINUOUS
0
ENDTAB
0
TABLE
2
STYLE
5
3
100
AcDbSymbolTable
70
1
0
STYLE
5
11
100
AcDbSymbolTableRecord
100
AcDbTextStyleTableRecord
2
STANDARD
70
0
0
ENDTAB
0
TABLE
2
VIEW
5
6
100
AcDbSymbolTable
70
0
0
ENDTAB
0
TABLE
2
UCS
5
7
100
AcDbSymbolTable
70
0
0
ENDTAB
0
TABLE
2
APPID
5
9
100
AcDbSymbolTable
70
2
0
APPID
5
12
100
AcDbSymbolTableRecord
100
AcDbRegAppTableRecord
2
ACAD
70
0
0
ENDTAB
0
TABLE
2
DIMSTYLE
5
A
100
AcDbSymbolTable
70
1
0
ENDTAB
0
TABLE
2
BLOCK_RECORD
5
1
100
AcDbSymbolTable
70
1
0
BLOCK_RECORD
5
1F
100
AcDbSymbolTableRecord
100
AcDbBlockTableRecord
2
*MODEL_SPACE
0
BLOCK_RECORD
5
1B
100
AcDbSymbolTableRecord
100
AcDbBlockTableRecord
2
*PAPER_SPACE
0
ENDTAB
0
ENDSEC
0
SECTION
2
BLOCKS
0
BLOCK
5
20
100
AcDbEntity
100
AcDbBlockBegin
2
*MODEL_SPACE
0
ENDBLK
5
21
100
AcDbEntity
100
AcDbBlockEnd
0
BLOCK
5
1C
100
AcDbEntity
100
AcDbBlockBegin
2
*PAPER_SPACE
0
ENDBLK
5
1D
100
AcDbEntity
100
AcDbBlockEnd
0
ENDSEC
0
SECTION
2
ENTITIES
0
LWPOLYLINE
5
100
100
AcDbEntity
8
0
100
AcDbPolyline
90
4
70
1
43
0.0
10
-22.98547381062955
20
-0.017576082987462733
10
-22.985473810629539
20
-30.01757608298746
10
-42.985473810629529
20
-30.017576082987468
10
-42.985473810629543
20
-0.017576082987470088
0
LWPOLYLINE
5
101
100
AcDbEntity
8
0
100
AcDbPolyline
90
18
70
1
43
0.0
10
-34.637991562873744
20
-12.221817446067451
10
-34.774917123009082
20
-12.080584167316518
10
-34.864663539108712
20
-12.167593251883996
10
-34.637991562873736
20
-12.40139639552625
10
-34.637991562873736
20
-12.680052894723538
10
-34.653408259269355
20
-13.675542793564844
10
-35.515631177033036
20
-14.17334742723717
10
-36.385459066838237
20
-14.65774112593679
10
-37.064625154961931
20
-14.265624402134117
10
-35.985473810629543
20
-13.642576082987468
10
-35.985473810629543
20
-12.392576082987469
10
-37.068005565360089
20
-11.767576082987469
10
-38.097583061776426
20
-12.362002927695023
10
-38.086676481615875
20
-11.65774112593679
10
-37.22445356385218
20
-11.159936492264457
10
-36.354625674046986
20
-10.675542793564846
10
-35.492402756283305
20
-11.173347427237173
10
-34.637991562873736
20
-11.684443627378871
0
LWPOLYLINE
5
102
100
AcDbEntity
8
0
100
AcDbPolyline
90
18
70
1
43
0.0
10
-38.163851369263291
20
-9.0991506222325427
10
-38.116838624439744
20
-8.9339715191739923
10
-38.237063910085034
20
-8.8997533852168385
10
-38.319371301479535
20
-9.1889400969619448
10
-38.560694908714026
20
-9.3282683465605878
10
-39.430522798519206
20
-9.8126620452601951
10
-40.292745716282887
20
-9.3148574115878731
10
-41.147156909692463
20
-8.8037612114461687
10
-41.147156909692455
20
-8.0195277638408182
10
-40.068005565360075
20
-8.6425760829874676
10
-38.985473810629529
20
-8.0175760829874694
10
-38.985473810629529
20
-6.767576082987472
10
-40.015051307045873
20
-6.1731492382799127
10
-39.399689405727962
20
-5.8304637128882559
10
-38.537466487964267
20
-6.3282683465605869
10
-37.683055294554705
20
-6.839364546702285
10
-37.683055294554705
20
-7.8349738140469425
10
-37.698471990950331
20
-8.8304637128882533
0
LWPOLYLINE
5
103
100
AcDbEntity
8
0
100
AcDbPolyline
90
12
70
1
43
0.0
10
-32.85488124417396
20
-9.1761959914636222
10
-32.854881244173974
20
-8.8405862107612041
10
-32.979881244173974
20
-8.8405862107612094
10
-32.97988124417396
20
-9.2270364272874286
42
-0.90913943136469233
10
-33.503111900834575
20
-7.93531201799507
10
-33.503111900834568
20
-7.9833650590806249
10
-33.373702378283312
20
-7.982780425261697
10
-33.373702378283312
20
-7.8835843554435554
42
-0.14142632950045872
10
-32.985473810629543
20
-7.883753272483716
10
-32.985473810629543
20
-8.0175760829874676
10
-32.856064288078265
20
-8.0175760829874676
10
-32.856064288078272
20
-7.9356170372253034
42
-0.60551040135991618
0
LINE
5
104
100
AcDbEntity
8
0
100
AcDbLine
10
-28.142237791431217
20
-8.5657712099408734
30
0
11
-28.142237791431224
21
-8.094944561390875
31
-1.552875797679157e-31
0
ELLIPSE
5
105
100
AcDbEntity
8
0
100
AcDbEllipse
10
-28.891107182470225
20
-8.7675760829874676
30
-2.1854783949314103e-17
11
-2.704592313609393
21
-2.7478947331992587e-16
31
0.0
40
0.25881904510252046
41
4.3989904582544685
42
4.4318349222448052
0
LINE
5
106
100
AcDbEntity
8
0
100
AcDbLine
10
-28.057299235418817
20
-8.1016721564283074
30
-2.1854783949314122e-17
11
-28.057299235418817
21
-8.3346241763557654
31
-2.1854783949314103e-17
0
LINE
5
107
100
AcDbEntity
8
0
100
AcDbLine
10
-28.057299235418817
20
-8.3346241763557654
30
-2.1854783949314103e-17
11
-28.051651125645339
21
-8.3346241763557654
31
-2.1854783949314122e-17
0
LINE
5
108
100
AcDbEntity
8
0
100
AcDbLine
10
-28.051651125645339
20
-8.3346241763557654
30
-2.1854783949314122e-17
11
-28.051651125645339
21
-8.5684122890105439
31
-1.9410947470989462e-32
0
SPLINE
5
109
100
AcDbEntity
8
0
100
AcDbSpline
70
1064
71
5
72
28
73
22
74
0
42
0.000000001
43
0.0000000001
44
0.0000000001
40
0.17679368336976561
40
0.17679368336976561
40
0.17679368336976561
40
0.17679368336976561
40
0.17679368336976561
40
0.17679368336976561
40
0.20000000000000001
40
0.25
40
0.29999999999999999
40
0.34999999999999998
40
0.39999999999999997
40
0.44999999999999996
40
0.49999999999999994
40
0.54999999999999993
40
0.59999999999999998
40
0.65000000000000002
40
0.70000000000000007
40
0.75000000000000011
40
0.80000000000000016
40
0.8500000000000002
40
0.90000000000000024
40
0.95000000000000029
40
1
40
1
40
1
40
1
40
1
40
1
10
-28.051651125645339
20
-8.5684122890105439
30
0
10
-28.040032736909804
20
-8.56887074027631
30
-2.1854783949314103e-17
10
-28.003599293804921
20
-8.5704335421039257
30
0
10
-27.943350863611848
20
-8.5736826894873506
30
-2.1854783949314103e-17
10
-27.860436597118873
20
-8.5797128128629723
30
0
10
-27.753458003063674
20
-8.5901003388641843
30
2.1854783949314103e-17
10
-27.62699360648206
20
-8.6049389706664687
30
-2.1854783949314103e-17
10
-27.487778726823549
20
-8.6225861934769572
30
0
10
-27.33143961651886
20
-8.6423486231895943
30
0
10
-27.156968765097538
20
-8.6631269691668553
30
0
10
-26.966002969230672
20
-8.6835442797847051
30
0
10
-26.761930296506176
20
-8.7020921079674984
30
0
10
-26.549098163971522
20
-8.7172700327677966
30
2.1854783949314103e-17
10
-26.332037743515919
20
-8.7277232271955079
30
0
10
-26.114645678495606
20
-8.7323996560762929
30
-2.1854783949314103e-17
10
-25.89954578783167
20
-8.7306669800194729
30
0
10
-25.688420634940506
20
-8.7221897131406205
30
0
10
-25.48220355508062
20
-8.7068468492670714
30
0
10
-25.321486833203732
20
-8.6890853519744677
30
0
10
-25.203384610187584
20
-8.6727044570095799
30
2.1854783949314103e-17
10
-25.125727808058581
20
-8.6604294847121874
30
0
10
-25.087168907404813
20
-8.6539534048543523
30
0
0
LINE
5
110
100
AcDbEntity
8
0
100
AcDbLine
10
-25.087168907404816
20
-8.653953404854354
30
-5.9776961965569299e-33
11
-25.087168907404813
21
-8.267576082987464
31
0
0
LINE
5
111
100
AcDbEntity
8
0
100
AcDbLine
10
-25.087168907404813
20
-8.267576082987464
30
0
11
-25.33418058237686
21
-8.267576082987464
31
3.458634289066426e-31
0
LINE
5
112
100
AcDbEntity
8
0
100
AcDbLine
10
-25.33418058237686
20
-8.267576082987464
30
3.458634289066426e-31
11
-25.33418058237686
21
-8.1800760829874655
31
0
0
LINE
5
113
100
AcDbEntity
8
0
100
AcDbLine
10
-25.33418058237686
20
-8.1800760829874655
30
0
11
-25.087168907404816
21
-8.1800760829874655
31
-3.458634289066426e-31
0
LINE
5
114
100
AcDbEntity
8
0
100
AcDbLine
10
-25.087168907404816
20
-8.1800760829874655
30
-3.458634289066426e-31
11
-25.087168907404813
21
-7.7651178590374732
31
1.1646568482593677e-31
0
SPLINE
5
115
100
AcDbEntity
8
0
100
AcDbSpline
70
1064
71
5
72
31
73
25
74
0
42
0.000000001
43
0.0000000001
44
0.0000000001
40
-1
40
-1
40
-1
40
-1
40
-1
40
-1
40
-0.95000000000000029
40
-0.90000000000000024
40
-0.8500000000000002
40
-0.80000000000000016
40
-0.75000000000000011
40
-0.70000000000000007
40
-0.65000000000000002
40
-0.59999999999999998
40
-0.54999999999999993
40
-0.49999999999999994
40
-0.44999999999999996
40
-0.39999999999999997
40
-0.34999999999999998
40
-0.29999999999999999
40
-0.25
40
-0.20000000000000001
40
-0.15000000000000002
40
-0.10000000000000001
40
-0.050000000000000003
40
0
40
0
40
0
40
0
40
0
40
0
10
-25.087168907404813
20
-7.7651178590374723
30
0
10
-25.140218377189964
20
-7.7521937339028968
30
-2.1854783949314103e-17
10
-25.244467760973205
20
-7.7271656741434631
30
0
10
-25.395293162800041
20
-7.6920841554897352
30
0
10
-25.585251121940054
20
-7.6502500237858744
30
0
10
-25.804021134789821
20
-7.6062897339603923
30
0
10
-26.004265117198912
20
-7.5707451739641902
30
0
10
-26.186653492861897
20
-7.5436208532049198
30
-2.1854783949314103e-17
10
-26.352675310593938
20
-7.5247653622278339
30
0
10
-26.504920304581944
20
-7.5137959858136441
30
0
10
-26.647495760329985
20
-7.5099874088700211
30
-2.1854783949314103e-17
10
-26.785305724018624
20
-7.5124344050241509
30
-2.1854783949314103e-17
10
-26.923147801960408
20
-7.5202541974139887
30
0
10
-27.064965719355421
20
-7.5327494931761816
30
0
10
-27.212823704822352
20
-7.5496282224374385
30
0
10
-27.367062590169461
20
-7.570962257652881
30
0
10
-27.526977243784078
20
-7.5970277684988359
30
0
10
-27.691291698835698
20
-7.6281861668733422
30
-2.1854783949314103e-17
10
-27.858724897041203
20
-7.6647365954649684
30
0
10
-28.02843566011326
20
-7.706799542897615
30
0
10
-28.199899940703752
20
-7.7543881431890354
30
0
10
-28.338257177366128
20
-7.7968409582346707
30
0
10
-28.442645892055822
20
-7.8311179271481537
30
0
10
-28.512513210931743
20
-7.8550480777640876
30
0
10
-28.547515577672151
20
-7.8672828643037827
30
0
0
LINE
5
116
100
AcDbEntity
8
0
100
AcDbLine
10
-28.547515577672147
20
-7.8672828643037827
30
0
11
-28.547515577672151
21
-8.5722214006413076
31
0
0
SPLINE
5
117
100
AcDbEntity
8
0
100
AcDbSpline
70
1064
71
5
72
14
73
8
74
0
42
0.000000001
43
0.0000000001
44
0.0000000001
40
0
40
0
40
0
40
0
40
0
40
0
40
0.050000000000000003
40
0.10000000000000001
40
0.1413172802429106
40
0.1413172802429106
40
0.1413172802429106
40
0.1413172802429106
40
0.1413172802429106
40
0.1413172802429106
10
-28.547515577672151
20
-8.5722214006413076
30
-2.1854783949314103e-17
10
-28.516102171408502
20
-8.5708156050313988
30
0
10
-28.454256001923859
20
-8.5683379949331737
30
-2.1854783949314103e-17
10
-28.36962850831614
20
-8.5657806440092266
30
0
10
-28.288932892260082
20
-8.5645627222547756
30
-2.1854783949314103e-17
10
-28.212029817382462
20
-8.5646993023568978
30
0
10
-28.163786773925253
20
-8.5653568848444159
30
0
10
-28.142237791431217
20
-8.5657712099408752
30
0
0
LINE
5
118
100
AcDbEntity
8
0
100
AcDbLine
10
-28.353757289951961
20
-6.031629391322106
30
2.1854783949314103e-17
11
-28.353757289951961
21
-6.4614637834393003
31
2.1854783949313404e-17
0
SPLINE
5
119
100
AcDbEntity
8
0
100
AcDbSpline
70
1064
71
5
72
29
73
23
74
0
42
0.000000001
43
0.0000000001
44
0.0000000001
40
0.12485315031574329
40
0.12485315031574329
40
0.12485315031574329
40
0.12485315031574329
40
0.12485315031574329
40
0.12485315031574329
40
0.15000000000000002
40
0.20000000000000001
40
0.25
40
0.29999999999999999
40
0.34999999999999998
40
0.39999999999999997
40
0.44999999999999996
40
0.49999999999999994
40
0.54999999999999993
40
0.59999999999999998
40
0.65000000000000002
40
0.70000000000000007
40
0.75000000000000011
40
0.80000000000000016
40
0.8500000000000002
40
0.90000000000000024
40
0.95000000000000029
40
1
40
1
40
1
40
1
40
1
40
1
10
-28.353757289951961
20
-6.4614637834392976
30
0
10
-28.340361744570576
20
-6.4616028047408935
30
0
10
-28.30066131973512
20
-6.4621471621319451
30
0
10
-28.236140722878694
20
-6.4636963359009352
30
0
10
-28.1491680329258
20
-6.4673685608278078
30
2.1854783949314103e-17
10
-28.041409874260697
20
-6.4747986799578658
30
0
10
-27.921589571154744
20
-6.4864331244463038
30
-2.1854783949314103e-17
10
-27.795125174573126
20
-6.5012717562485891
30
0
10
-27.655910294914616
20
-6.5189189790590767
30
0
10
-27.499571184609927
20
-6.5386814087717156
30
2.1854783949314103e-17
10
-27.325100333188598
20
-6.5594597547489766
30
0
10
-27.134134537321739
20
-6.5798770653668264
30
0
10
-26.930061864597242
20
-6.5984248935496197
30
-2.1854783949314103e-17
10
-26.717229732062588
20
-6.613602818349916
30
0
10
-26.500169311606985
20
-6.6240560127776273
30
2.1854783949314103e-17
10
-26.282777246586672
20
-6.6287324416584124
30
0
10
-26.067677355922736
20
-6.6269997656015933
30
0
10
-25.856552203031573
20
-6.61852249872274
30
2.1854783949314103e-17
10
-25.650335123171686
20
-6.6031796348491918
30
-2.1854783949314103e-17
10
-25.489618401294791
20
-6.5854181375565881
30
0
10
-25.37151617827865
20
-6.5690372425916985
30
-2.1854783949314103e-17
10
-25.293859376149648
20
-6.5567622702943078
30
0
10
-25.255300475495883
20
-6.5502861904364726
30
0
0
LINE
5
120
100
AcDbEntity
8
0
100
AcDbLine
10
-25.25530047549589
20
-6.5502861904364735
30
7.9187921905399662e-33
11
-25.255300475495883
21
-6.1639088685695844
31
0
0
LINE
5
121
100
AcDbEntity
8
0
100
AcDbLine
10
-25.255300475495883
20
-6.1639088685695844
30
0
11
-25.50347839794345
21
-6.1639088685695844
31
-2.1854783949314304e-17
0
LINE
5
122
100
AcDbEntity
8
0
100
AcDbLine
10
-25.50347839794345
20
-6.1639088685695844
30
-2.1854783949314304e-17
11
-25.503478397943447
21
-6.076408868569585
31
0
0
LINE
5
123
100
AcDbEntity
8
0
100
AcDbLine
10
-25.503478397943447
20
-6.076408868569585
30
0
11
-25.255300475495876
21
-6.076408868569585
31
2.1854783949314304e-17
0
LINE
5
124
100
AcDbEntity
8
0
100
AcDbLine
10
-25.255300475495876
20
-6.076408868569585
30
2.1854783949314304e-17
11
-25.255300475495883
21
-5.6614506446195927
31
1.1646568482593677e-31
0
SPLINE
5
125
100
AcDbEntity
8
0
100
AcDbSpline
70
1064
71
5
72
31
73
25
74
0
42
0.000000001
43
0.0000000001
44
0.0000000001
40
-1
40
-1
40
-1
40
-1
40
-1
40
-1
40
-0.95000000000000029
40
-0.90000000000000024
40
-0.8500000000000002
40
-0.80000000000000016
40
-0.75000000000000011
40
-0.70000000000000007
40
-0.65000000000000002
40
-0.59999999999999998
40
-0.54999999999999993
40
-0.49999999999999994
40
-0.44999999999999996
40
-0.39999999999999997
40
-0.34999999999999998
40
-0.29999999999999999
40
-0.25
40
-0.20000000000000001
40
-0.15000000000000002
40
-0.10000000000000001
40
-0.050000000000000003
40
0
40
0
40
0
40
0
40
0
40
0
10
-25.255300475495876
20
-5.6614506446195927
30
-2.1854783949314103e-17
10
-25.30834994528103
20
-5.6485265194850172
30
0
10
-25.412599329064271
20
-5.6234984597255817
30
0
10
-25.563424730891107
20
-5.5884169410718556
30
0
10
-25.75338269003112
20
-5.5465828093679947
30
0
10
-25.972152702880887
20
-5.5026225195425127
30
0
10
-26.172396685289979
20
-5.4670779595463097
30
0
10
-26.354785060952956
20
-5.4399536387870402
30
0
10
-26.520806878685004
20
-5.4210981478099542
30
0
10
-26.67305187267301
20
-5.4101287713957644
30
0
10
-26.815627328421051
20
-5.4063201944521406
30
0
10
-26.95343729210969
20
-5.4087671906062695
30
0
10
-27.091279370051474
20
-5.4165869829961091
30
-2.1854783949314103e-17
10
-27.233097287446487
20
-5.4290822787583011
30
0
10
-27.380955272913418
20
-5.445961008019558
30
2.1854783949314103e-17
10
-27.535194158260527
20
-5.4672950432350005
30
0
10
-27.695108811875144
20
-5.4933605540809562
30
-2.1854783949314103e-17
10
-27.859423266926765
20
-5.5245189524554625
30
0
10
-28.026856465132269
20
-5.5610693810470888
30
0
10
-28.196567228204326
20
-5.6031323284797345
30
0
10
-28.368031508794814
20
-5.6507209287711557
30
-2.1854783949314103e-17
10
-28.506388745457194
20
-5.6931737438167911
30
0
10
-28.610777460146885
20
-5.7274507127302741
30
2.1854783949314103e-17
10
-28.68064477902281
20
-5.751380863346208
30
2.1854783949314103e-17
10
-28.715647145763214
20
-5.763615649885903
30
0
0
LINE
5
126
100
AcDbEntity
8
0
100
AcDbLine
10
-28.715647145763207
20
-5.763615649885903
30
7.6142137502157012e-33
11
-28.715647145763214
21
-6.4685541862234279
31
0
0
SPLINE
5
127
100
AcDbEntity
8
0
100
AcDbSpline
70
1064
71
5
72
13
73
7
74
0
42
0.000000001
43
0.0000000001
44
0.0000000001
40
0
40
0
40
0
40
0
40
0
40
0
40
0.050000000000000003
40
0.091590361829115674
40
0.091590361829115674
40
0.091590361829115674
40
0.091590361829115674
40
0.091590361829115674
40
0.091590361829115674
10
-28.715647145763214
20
-6.4685541862234279
30
0
10
-28.684233739499568
20
-6.4671483906135192
30
0
10
-28.627588609091134
20
-6.4648791385598399
30
0
10
-28.572588876940493
20
-6.4631702228583849
30
0
10
-28.519240237591294
20
-6.4620237512410919
30
2.1854783949314103e-17
10
-28.467508426096217
20
-6.461443659368995
30
0
10
-28.444343955737843
20
-6.4612974016600031
30
0
0
LINE
5
128
100
AcDbEntity
8
0
100
AcDbLine
10
-28.444343955737843
20
-6.4612974016600031
30
1.7185292532758613e-32
11
-28.444343955737843
21
-6.0433100287547594
31
2.7175326459385245e-31
0
ELLIPSE
5
129
100
AcDbEntity
8
0
100
AcDbEllipse
10
-27.193213346776847
20
-6.6639088685695853
30
0
11
-2.704592313609393
21
-2.7478947331992587e-16
31
0.0
40
0.25881904510252046
41
5.155886511206532
42
5.1933088495087505
0
LWPOLYLINE
5
130
100
AcDbEntity
8
0
100
AcDbPolyline
90
12
70
1
43
0.0
10
-24.49961962865164
20
-2.9671042373081264
10
-24.301551723669103
20
-3.020176372494721
42
-0.72164850913979017
10
-25.592619716873571
20
-2.7063018357229272
10
-25.421616728131092
20
-2.7063018357229272
10
-25.421616728131092
20
-2.5813018357229263
10
-25.591705658339233
20
-2.5813018357229263
42
-0.78430008810209972
10
-24.246085967041893
20
-2.386335480722475
10
-24.33857041309107
20
-2.3615543480911576
10
-24.370922793728887
20
-2.4822950763772935
10
-24.205752264059964
20
-2.5265523864155011
42
-0.13890090136043109
10
-24.243978039752793
20
-2.9061936720541217
10
-24.467267248013826
20
-2.8463635090219936
0
LWPOLYLINE
5
131
100
AcDbEntity
8
0
100
AcDbPolyline
90
16
70
1
43
0.0
10
-28.201279187284285
20
-2.6834800095466238
10
-28.201279187284285
20
-2.4505279896191654
10
-28.326279187284285
20
-2.4505279896191654
10
-28.326279187284285
20
-2.6290102129174362
42
-0.59259737611372798
10
-28.316924496845747
20
-1.4010207792175526
10
-28.316924496845747
20
-1.5262423859962142
10
-28.191924496845747
20
-1.5262423859962142
10
-28.191924496845747
20
-1.3487127829321719
42
-0.1432750308480335
10
-27.798866745151027
20
-1.3429074212626932
10
-27.798866745151027
20
-1.5021843572222497
10
-27.673866745151031
20
-1.5021843572222497
10
-27.673866745151024
20
-1.3907578982290263
42
-0.62707813333523865
10
-27.687393224505261
20
-2.6509385101773018
10
-27.687393224505261
20
-2.4683955564023301
10
-27.812393224505261
20
-2.4683955564023301
10
-27.812393224505254
20
-2.6958408621901553
42
-0.14175008030484029
0
LINE
5
132
100
AcDbEntity
8
0
100
AcDbLine
10
-30.831987560414234
20
-5.1363894451481658
30
2.1854783949314103e-17
11
-30.831987560414234
21
-5.2477494181211322
31
2.1854783949313706e-17
0
LINE
5
133
100
AcDbEntity
8
0
100
AcDbLine
10
-30.831987560414234
20
-5.2477494181211322
30
2.1854783949313706e-17
11
-30.534495707393585
21
-5.2477494181211348
31
2.1854783949314128e-17
0
SPLINE
5
134
100
AcDbEntity
8
0
100
AcDbSpline
70
1064
71
5
72
31
73
25
74
0
42
0.000000001
43
0.0000000001
44
0.0000000001
40
0
40
0
40
0
40
0
40
0
40
0
40
0.050000000000000003
40
0.10000000000000001
40
0.15000000000000002
40
0.20000000000000001
40
0.25
40
0.29999999999999999
40
0.34999999999999998
40
0.39999999999999997
40
0.44999999999999996
40
0.49999999999999994
40
0.54999999999999993
40
0.59999999999999998
40
0.65000000000000002
40
0.70000000000000007
40
0.75000000000000011
40
0.80000000000000016
40
0.8500000000000002
40
0.90000000000000024
40
0.95000000000000029
40
1
40
1
40
1
40
1
40
1
40
1
10
-30.534495707393585
20
-5.2477494181211348
30
2.1854783949314103e-17
10
-30.53590150300349
20
-5.2163360118574884
30
0
10
-30.538379113101715
20
-5.154489842372846
30
0
10
-30.541093591033452
20
-5.0646627241369284
30
-2.1854783949314103e-17
10
-30.542700790748622
20
-4.9507997398164498
30
0
10
-30.541316227536075
20
-4.8179448989143578
30
0
10
-30.536501516895093
20
-4.6931653405409657
30
0
10
-30.528251213659143
20
-4.5735121466186142
30
0
10
-30.516616769170707
20
-4.4536918435126607
30
0
10
-30.501778137368422
20
-4.3272274469310466
30
0
10
-30.48413091455793
20
-4.1880125672725308
30
2.1854783949314103e-17
10
-30.464368484845295
20
-4.0316734569678498
30
2.1854783949314103e-17
10
-30.443590138868029
20
-3.8572026055465205
30
0
10
-30.423172828250181
20
-3.6662368096796589
30
0
10
-30.404625000067391
20
-3.462164136955161
30
0
10
-30.389447075267096
20
-3.2493320044205074
30
0
10
-30.378993880839381
20
-3.0322715839649028
30
0
10
-30.3743174519586
20
-2.8148795189445903
30
0
10
-30.376050128015418
20
-2.5997796282806536
30
0
10
-30.38452739489427
20
-2.3886544753894885
30
0
10
-30.399870258767816
20
-2.1824373955296061
30
0
10
-30.417631756060423
20
-2.021720673652712
30
2.1854783949314103e-17
10
-30.434012651025313
20
-1.9036184506365672
30
0
10
-30.446287623322704
20
-1.8259616485075687
30
0
10
-30.452763703180533
20
-1.7874027478537999
30
0
0
LINE
5
135
100
AcDbEntity
8
0
100
AcDbLine
10
-30.452763703180533
20
-1.7874027478538004
30
-3.2901591736571105e-32
11
-30.851204750919308
21
-1.7874027478537999
31
1.4940640750690235e-31
0
LINE
5
136
100
AcDbEntity
8
0
100
AcDbLine
10
-30.851204750919308
20
-1.7874027478537999
30
1.4940640750690235e-31
11
-30.851204750919308
21
-1.9904209649660443
31
2.1854783949314122e-17
0
LINE
5
137
100
AcDbEntity
8
0
100
AcDbLine
10
-30.851204750919308
20
-1.9904209649660443
30
2.1854783949314122e-17
11
-30.894618056543582
21
-1.9904209649660443
31
-9.10070568641007e-33
0
LINE
5
138
100
AcDbEntity
8
0
100
AcDbLine
10
-30.894618056543582
20
-1.9904209649660443
30
-9.10070568641007e-33
11
-30.894618056543585
21
-2.1018474239592679
31
0
0
ELLIPSE
5
139
100
AcDbEntity
8
0
100
AcDbEllipse
10
-29.690660807744177
20
-1.4750292392008286
30
2.1854783949314103e-17
11
-2.704592313609393
21
-4.6069978937390833e-16
31
0.0
40
0.25881904510252046
41
1.0898764576708297
42
1.1094512653413826
0
LINE
5
140
100
AcDbEntity
8
0
100
AcDbLine
10
-30.941791416705193
20
-2.0956280790156545
30
2.1854783949314109e-17
11
-30.941791416705193
21
-1.7874027478537999
31
-9.7054737354947304e-31
0
LINE
5
141
100
AcDbEntity
8
0
100
AcDbLine
10
-30.941791416705193
20
-1.7874027478537999
30
-9.7054737354947304e-31
11
-31.341599248997419
21
-1.7874027478537964
31
-8.3811480385846668e-32
0
SPLINE
5
142
100
AcDbEntity
8
0
100
AcDbSpline
70
1064
71
5
72
31
73
25
74
0
42
0.000000001
43
0.0000000001
44
0.0000000001
40
-1
40
-1
40
-1
40
-1
40
-1
40
-1
40
-0.95000000000000029
40
-0.90000000000000024
40
-0.8500000000000002
40
-0.80000000000000016
40
-0.75000000000000011
40
-0.70000000000000007
40
-0.65000000000000002
40
-0.59999999999999998
40
-0.54999999999999993
40
-0.49999999999999994
40
-0.44999999999999996
40
-0.39999999999999997
40
-0.34999999999999998
40
-0.29999999999999999
40
-0.25
40
-0.20000000000000001
40
-0.15000000000000002
40
-0.10000000000000001
40
-0.050000000000000003
40
0
40
0
40
0
40
0
40
0
40
0
10
-31.341599248997415
20
-1.7874027478537964
30
2.1854783949314103e-17
10
-31.354523374131993
20
-1.840452217638946
30
0
10
-31.379551433891425
20
-1.9447016014221863
30
0
10
-31.414632952545155
20
-2.095527003249023
30
2.1854783949314103e-17
10
-31.456467084249017
20
-2.285484962389035
30
0
10
-31.500427374074498
20
-2.5042549752388044
30
0
10
-31.535971934070698
20
-2.7044989576478979
30
-2.1854783949314103e-17
10
-31.563096254829969
20
-2.8868873333108773
30
0
10
-31.581951745807054
20
-3.0529091510429223
30
-2.1854783949314103e-17
10
-31.592921122221245
20
-3.2051541450309302
30
2.1854783949314103e-17
10
-31.596729699164868
20
-3.3477296007789681
30
0
10
-31.594282703010737
20
-3.4855395644676066
30
0
10
-31.586462910620902
20
-3.6233816424093925
30
0
10
-31.573967614858706
20
-3.7651995598044055
30
0
10
-31.557088885597448
20
-3.9130575452713368
30
0
10
-31.535754850382013
20
-4.0672964306184429
30
0
10
-31.509689339536052
20
-4.2272110842330681
30
0
10
-31.478530941161548
20
-4.391525539284685
30
0
10
-31.441980512569923
20
-4.5589587374901921
30
-2.1854783949314103e-17
10
-31.399917565137272
20
-4.7286695005622503
30
0
10
-31.352328964845857
20
-4.9001337811527366
30
0
10
-31.309876149800221
20
-5.0384910178151179
30
0
10
-31.275599180886733
20
-5.1428797325048068
30
0
10
-31.251669030270797
20
-5.2127470513807346
30
2.1854783949314103e-17
10
-31.239434243731107
20
-5.247749418121133
30
0
0
LINE
5
143
100
AcDbEntity
8
0
100
AcDbLine
10
-31.239434243731111
20
-5.247749418121133
30
1.5958960216023335e-32
11
-30.956987560414234
21
-5.247749418121133
31
3.6978429139084356e-31
0
LINE
5
144
100
AcDbEntity
8
0
100
AcDbLine
10
-30.956987560414234
20
-5.247749418121133
30
3.6978429139084356e-31
11
-30.956987560414234
21
-5.1363894451481658
31
0
0
LINE
5
145
100
AcDbEntity
8
0
100
AcDbLine
10
-30.956987560414234
20
-5.1363894451481658
30
0
11
-30.831987560414234
21
-5.1363894451481658
31
2.1854783949314103e-17
0
LINE
5
146
100
AcDbEntity
8
0
100
AcDbLine
10
-32.920810023499115
20
-5.747749418121133
30
0
11
-32.918255686969196
21
-5.6014115763301948
31
2.1352042218088407e-31
0
LINE
5
147
100
AcDbEntity
8
0
100
AcDbLine
10
-32.918255686969196
20
-5.6014115763301948
30
2.1352042218088407e-31
11
-32.793274725074653
21
-5.6035931271348538
31
2.1854783949313786e-17
0
LINE
5
148
100
AcDbEntity
8
0
100
AcDbLine
10
-32.793274725074653
20
-5.6035931271348538
30
2.1854783949313786e-17
11
-32.795790982493628
21
-5.7477494181211348
31
-2.9116421206484193e-32
0
LINE
5
149
100
AcDbEntity
8
0
100
AcDbLine
10
-32.795790982493628
20
-5.7477494181211348
30
-2.9116421206484193e-32
11
-32.534495707393589
21
-5.7477494181211357
31
-1.3428130433019725e-30
0
SPLINE
5
150
100
AcDbEntity
8
0
100
AcDbSpline
70
1064
71
5
72
31
73
25
74
0
42
0.000000001
43
0.0000000001
44
0.0000000001
40
0
40
0
40
0
40
0
40
0
40
0
40
0.050000000000000003
40
0.10000000000000001
40
0.15000000000000002
40
0.20000000000000001
40
0.25
40
0.29999999999999999
40
0.34999999999999998
40
0.39999999999999997
40
0.44999999999999996
40
0.49999999999999994
40
0.54999999999999993
40
0.59999999999999998
40
0.65000000000000002
40
0.70000000000000007
40
0.75000000000000011
40
0.80000000000000016
40
0.8500000000000002
40
0.90000000000000024
40
0.95000000000000029
40
1
40
1
40
1
40
1
40
1
40
1
10
-32.534495707393589
20
-5.7477494181211348
30
0
10
-32.535901503003487
20
-5.7163360118574884
30
0
10
-32.538379113101712
20
-5.654489842372846
30
0
10
-32.541093591033452
20
-5.5646627241369284
30
0
10
-32.542700790748626
20
-5.4507997398164498
30
2.1854783949314103e-17
10
-32.541316227536079
20
-5.3179448989143578
30
0
10
-32.536501516895093
20
-5.1931653405409657
30
0
10
-32.528251213659146
20
-5.0735121466186133
30
-2.1854783949314103e-17
10
-32.51661676917071
20
-4.9536918435126607
30
0
10
-32.501778137368419
20
-4.8272274469310466
30
0
10
-32.484130914557937
20
-4.6880125672725308
30
0
10
-32.464368484845302
20
-4.5316734569678498
30
0
10
-32.443590138868032
20
-4.3572026055465205
30
0
10
-32.423172828250188
20
-4.1662368096796607
30
0
10
-32.404625000067398
20
-3.9621641369551623
30
0
10
-32.389447075267093
20
-3.7493320044205087
30
0
10
-32.378993880839388
20
-3.5322715839649028
30
0
10
-32.374317451958596
20
-3.3148795189445912
30
0
10
-32.376050128015414
20
-3.099779628280654
30
0
10
-32.38452739489427
20
-2.8886544753894889
30
2.1854783949314103e-17
10
-32.39987025876782
20
-2.682437395529607
30
0
10
-32.417631756060423
20
-2.5217206736527125
30
0
10
-32.434012651025313
20
-2.4036184506365679
30
0
10
-32.446287623322704
20
-2.3259616485075694
30
0
10
-32.452763703180537
20
-2.2874027478538004
30
0
0
LINE
5
151
100
AcDbEntity
8
0
100
AcDbLine
10
-32.452763703180537
20
-2.2874027478538008
30
2.7951763334492055e-34
11
-32.817230154703751
21
-2.2874027478538004
31
-3.7580992610276864e-32
0
LINE
5
152
100
AcDbEntity
8
0
100
AcDbLine
10
-32.817230154703751
20
-2.2874027478538004
30
-3.7580992610276864e-32
11
-32.817230154703751
21
-2.4663629361920805
31
8.9290358366551532e-31
0
LINE
5
153
100
AcDbEntity
8
0
100
AcDbLine
10
-32.817230154703751
20
-2.4663629361920805
30
8.9290358366551532e-31
11
-32.859022012843276
21
-2.4663629361920805
31
-2.331901320850088e-32
0
LINE
5
154
100
AcDbEntity
8
0
100
AcDbLine
10
-32.859022012843276
20
-2.4663629361920805
30
-2.331901320850088e-32
11
-32.859022012843276
21
-2.6438925392561243
31
-2.1854783949314122e-17
0
ELLIPSE
5
155
100
AcDbEntity
8
0
100
AcDbEllipse
10
-33.656686211528594
20
-1.9750292392008304
30
0
11
-2.704592313609393
21
-4.6069978937390833e-16
31
0.0
40
0.25881904510252046
41
1.8513503849347619
42
1.8701781168795653
0
LINE
5
156
100
AcDbEntity
8
0
100
AcDbLine
10
-32.907816820489636
20
-2.6476607607974256
30
2.0346446970749515e-31
11
-32.907816820489636
21
-2.2874027478538004
31
-5.0468463424572604e-31
0
LINE
5
157
100
AcDbEntity
8
0
100
AcDbLine
10
-32.907816820489636
20
-2.2874027478538004
30
-5.0468463424572604e-31
11
-33.341599248997419
21
-2.2874027478537968
31
-1.3289765094604131e-32
0
SPLINE
5
158
100
AcDbEntity
8
0
100
AcDbSpline
70
1064
71
5
72
31
73
25
74
0
42
0.000000001
43
0.0000000001
44
0.0000000001
40
-1
40
-1
40
-1
40
-1
40
-1
40
-1
40
-0.95000000000000029
40
-0.90000000000000024
40
-0.8500000000000002
40
-0.80000000000000016
40
-0.75000000000000011
40
-0.70000000000000007
40
-0.65000000000000002
40
-0.59999999999999998
40
-0.54999999999999993
40
-0.49999999999999994
40
-0.44999999999999996
40
-0.39999999999999997
40
-0.34999999999999998
40
-0.29999999999999999
40
-0.25
40
-0.20000000000000001
40
-0.15000000000000002
40
-0.10000000000000001
40
-0.050000000000000003
40
0
40
0
40
0
40
0
40
0
40
0
10
-33.341599248997419
20
-2.2874027478537968
30
0
10
-33.354523374131993
20
-2.3404522176389464
30
2.1854783949314103e-17
10
-33.379551433891429
20
-2.4447016014221865
30
0
10
-33.414632952545155
20
-2.5955270032490234
30
0
10
-33.45646708424902
20
-2.7854849623890354
30
-2.1854783949314103e-17
10
-33.500427374074505
20
-3.0042549752388048
30
0
10
-33.535971934070702
20
-3.2044989576478988
30
0
10
-33.563096254829972
20
-3.3868873333108782
30
0
10
-33.581951745807054
20
-3.5529091510429232
30
0
10
-33.592921122221249
20
-3.7051541450309315
30
0
10
-33.596729699164868
20
-3.8477296007789694
30
-2.1854783949314103e-17
10
-33.594282703010741
20
-3.9855395644676079
30
0
10
-33.586462910620902
20
-4.1233816424093925
30
0
10
-33.573967614858709
20
-4.2651995598044063
30
0
10
-33.557088885597452
20
-4.4130575452713376
30
0
10
-33.535754850382013
20
-4.5672964306184429
30
0
10
-33.50968933953606
20
-4.7272110842330681
30
0
10
-33.478530941161544
20
-4.891525539284685
30
0
10
-33.44198051256992
20
-5.0589587374901921
30
2.1854783949314103e-17
10
-33.399917565137272
20
-5.2286695005622503
30
0
10
-33.35232896484586
20
-5.4001337811527366
30
0
10
-33.309876149800218
20
-5.5384910178151179
30
0
10
-33.275599180886736
20
-5.6428797325048059
30
0
10
-33.251669030270804
20
-5.7127470513807346
30
0
10
-33.239434243731111
20
-5.747749418121133
30
0
0
LINE
5
159
100
AcDbEntity
8
0
100
AcDbLine
10
-33.239434243731118
20
-5.747749418121133
30
0
11
-32.920810023499115
21
-5.747749418121133
31
0
0
LWPOLYLINE
5
160
100
AcDbEntity
8
0
100
AcDbPolyline
90
18
70
1
43
0.0
10
-36.637991562873736
20
-2.2218174460674489
10
-36.778899795060418
20
-2.0764761992246328
10
-36.868646211160055
20
-2.163485283792113
10
-36.637991562873736
20
-2.4013963955262492
10
-36.637991562873736
20
-2.6800528947235396
10
-36.653408259269355
20
-3.6755427935648406
10
-37.515631177033043
20
-4.1733474272371689
10
-38.385459066838237
20
-4.6577411259367887
10
-39.064625154961931
20
-4.265624402134117
10
-37.985473810629543
20
-3.6425760829874672
10
-37.985473810629543
20
-2.3925760829874685
10
-39.068005565360096
20
-1.7675760829874712
10
-40.097583061776433
20
-2.362002927695023
10
-40.086676481615875
20
-1.6577411259367922
10
-39.224453563852187
20
-1.1599364922644562
10
-38.354625674046993
20
-0.67554279356484404
10
-37.492402756283312
20
-1.1733474272371729
10
-36.637991562873736
20
-1.6844436273788697
0
ENDSEC
0
SECTION
2
OBJECTS
0
DICTIONARY
5
C
100
AcDbDictionary
3
ACAD_GROUP
350
D
3
ACAD_MLINESTYLE
350
17
0
DICTIONARY
5
D
100
AcDbDictionary
0
DICTIONARY
5
1A
330
C
100
AcDbDictionary
0
DICTIONARY
5
17
100
AcDbDictionary
0
ENDSEC
0
EOF
